<?xml version="1.0" encoding="UTF-8"?>
<svg width="22px" height="22px" viewBox="0 0 22 22" version="1.1" xmlns="http://www.w3.org/2000/svg" xmlns:xlink="http://www.w3.org/1999/xlink">
    <title>Path</title>
    <g id="Page-1" stroke="none" stroke-width="1" fill="none" fill-rule="evenodd" stroke-linecap="round" stroke-linejoin="round">
        <g id="NAVBAR" transform="translate(-1113.000000, -56.000000)" stroke="#FFFFFF">
            <path d="M1133.88812,71.9200983 L1133.88812,74.9200983 C1133.89041,75.4832434 1133.65517,76.0212567 1133.2402,76.4019632 C1132.82523,76.7826697 1132.26899,76.9707864 1131.70812,76.9200983 C1128.63096,76.5857391 1125.67512,75.5342429 1123.07812,73.8500983 C1120.66195,72.3147622 1118.61346,70.2662702 1117.07812,67.8500983 C1115.3881,65.2413023 1114.33637,62.2710929 1114.00812,59.1800983 C1113.9576,58.6209707 1114.1444,58.0663507 1114.52289,57.6517194 C1114.90138,57.237088 1115.43672,57.000627 1115.99812,57 L1118.99812,57 C1120.00199,56.9902182 1120.85762,57.7260658 1120.99812,58.7200983 C1121.12475,59.6801648 1121.35957,60.6228252 1121.69812,61.5300983 C1121.97286,62.2609733 1121.79714,63.0849046 1121.24812,63.6400983 L1119.97812,64.9100983 C1121.40168,67.4136441 1123.47458,69.4865428 1125.97812,70.9100983 L1127.24812,69.6400983 C1127.80332,69.0910832 1128.62725,68.9153633 1129.35812,69.1900983 C1130.2654,69.5286489 1131.20806,69.7634753 1132.16812,69.8900983 C1133.17369,70.0319586 1133.91331,70.9048909 1133.88812,71.9200983 Z" id="Path"></path>
        </g>
    </g>
</svg>