<?xml version="1.0" encoding="UTF-8"?>
<svg width="33px" height="33px" viewBox="0 0 33 33" version="1.1" xmlns="http://www.w3.org/2000/svg" xmlns:xlink="http://www.w3.org/1999/xlink">
    <title>insta</title>
    <g id="Page-1" stroke="none" stroke-width="1" fill="none" fill-rule="evenodd">
        <g id="Desktop-HD-Copy-15" transform="translate(-1334.000000, -267.000000)">
            <g id="insta" transform="translate(1334.000000, 267.000000)">
                <g id="Oval">
                    <path d="M16.5,0 C25.6126984,0 33,7.38730163 33,16.5 C33,25.6126984 25.6126984,33 16.5,33 C7.38730163,33 0,25.6126984 0,16.5 C0,7.38730163 7.38730163,0 16.5,0 Z" id="Path"></path>
                    <path d="M16.5,1.5 C12.4933491,1.5 8.72652054,3.06027031 5.89340019,5.89340019 C3.06027031,8.72652054 1.5,12.4933491 1.5,16.5 C1.5,20.506649 3.06027031,24.2734795 5.89340019,27.1065998 C8.72652054,29.9397297 12.4933491,31.5 16.5,31.5 C20.506649,31.5 24.2734795,29.9397297 27.1065998,27.1065998 C29.9397297,24.2734795 31.5,20.506649 31.5,16.5 C31.5,12.4933491 29.9397297,8.72652054 27.1065998,5.89340019 C24.2734795,3.06027031 20.506649,1.5 16.5,1.5 M16.5,0 C25.6126995,0 33,7.38730049 33,16.5 C33,25.6126995 25.6126995,33 16.5,33 C7.38730049,33 0,25.6126995 0,16.5 C0,7.38730049 7.38730049,0 16.5,0 Z" id="Shape" fill="#fff" fill-rule="nonzero"></path>
                </g>
                <path d="M16.5,25 C14.207,25 13.9,24.99 13,24.949 C12.2944007,24.9326909 11.5966089,24.7974599 10.936,24.549 C10.3686046,24.3359398 9.8546171,24.0014725 9.43,23.569 C8.99752746,23.1443829 8.66306016,22.6303954 8.45,22.063 C8.20199183,21.4026476 8.06710108,20.705205 8.051,20 C8.01,19.1 8,18.794 8,16.5 C8,14.206 8.01,13.9 8.051,13 C8.06730914,12.2944007 8.2025401,11.5966089 8.451,10.936 C8.66406016,10.3686046 8.99852746,9.8546171 9.431,9.43 C9.85377421,8.99668993 10.366028,8.6608753 10.932,8.446 C11.5941678,8.19880526 12.2933402,8.06525928 13,8.051 C13.9,8.01 14.206,8 16.5,8 C18.794,8 19.1,8.01 20,8.051 C20.7055993,8.06730914 21.4033911,8.2025401 22.064,8.451 C22.6313954,8.66406016 23.1453829,8.99852746 23.57,9.431 C24.0024725,9.8556171 24.3369398,10.3696046 24.55,10.937 C24.7980082,11.5973524 24.9328989,12.294795 24.949,13 C24.99,13.9 25,14.206 25,16.5 C25,18.794 24.99,19.1 24.949,20 C24.9326909,20.7055993 24.7974599,21.4033911 24.549,22.064 C24.1078857,23.2060974 23.2050974,24.1088857 22.063,24.55 C21.4023911,24.7984599 20.7045993,24.9336909 19.999,24.95 C19.1,24.99 18.794,25 16.5,25 Z M16.5,9.532 C14.217,9.532 13.95,9.541 13.066,9.581 C12.5267918,9.58773144 11.9927264,9.68683286 11.487,9.874 C11.1181486,10.0103481 10.7843712,10.2272864 10.51,10.509 C10.2282864,10.7833712 10.0113481,11.1171486 9.875,11.486 C9.68783286,11.9917264 9.58873144,12.5257918 9.582,13.065 C9.54,13.95 9.532,14.217 9.532,16.5 C9.532,18.783 9.541,19.051 9.581,19.935 C9.58773144,20.4742082 9.68683286,21.0082736 9.874,21.514 C10.0099835,21.8830343 10.2269711,22.2168877 10.509,22.491 C10.7830759,22.7733114 11.1169181,22.9906334 11.486,23.127 C11.9917864,23.313826 12.52585,23.4125889 13.065,23.419 C13.95,23.46 14.216,23.469 16.499,23.469 C18.782,23.469 19.05,23.46 19.934,23.419 C20.47315,23.4125889 21.0072136,23.313826 21.513,23.127 C22.2536305,22.8401753 22.8391753,22.2546305 23.126,21.514 C23.312826,21.0082136 23.4115889,20.47415 23.418,19.935 C23.459,19.05 23.468,18.784 23.468,16.5 C23.468,14.216 23.459,13.95 23.418,13.066 C23.4115889,12.52685 23.312826,11.9927864 23.126,11.487 C22.9896334,11.1179181 22.7723114,10.7840759 22.49,10.51 C22.2158877,10.2279711 21.8820343,10.0109835 21.513,9.875 C21.0072736,9.68783286 20.4732082,9.58873144 19.934,9.582 C19.05,9.54 18.783,9.532 16.5,9.532 Z M16.517,20.886 C14.1048807,20.8854477 12.149816,18.9297861 12.1500001,16.5176667 C12.1501842,14.1055473 14.1055473,12.1501842 16.5176667,12.1500001 C18.9297861,12.149816 20.8854477,14.1048807 20.886,16.517 C20.8832436,18.9286275 18.9286281,20.8827956 16.517,20.885 L16.517,20.886 Z M16.517,13.686 C14.951403,13.6865522 13.682632,14.9560694 13.683,16.5216664 C13.6833682,18.0872635 14.9527362,19.3561838 16.5183332,19.3559998 C18.0839303,19.3558158 19.3530002,18.0865971 19.3530002,16.521 C19.3535525,14.9540061 18.0839936,13.6831042 16.517,13.682 L16.517,13.686 Z M21.017,12.962 C20.4580878,12.962 20.005,12.5089122 20.005,11.95 C20.005,11.3910878 20.4580878,10.938 21.017,10.938 C21.5759122,10.938 22.029,11.3910878 22.029,11.95 C22.0262602,12.505954 21.5759565,12.9558114 21.02,12.958 L21.017,12.962 Z" id="Shape" fill="#fff" fill-rule="nonzero"></path>
            </g>
        </g>
    </g>
</svg>