<?xml version="1.0" encoding="UTF-8"?>
<svg width="76px" height="76px" viewBox="0 0 76 76" version="1.1" xmlns="http://www.w3.org/2000/svg" xmlns:xlink="http://www.w3.org/1999/xlink">
    <title>Group 25</title>
    <g id="Page-1" stroke="none" stroke-width="1" fill="none" fill-rule="evenodd">
        <g id="DEFINITIVO-Copy-2" transform="translate(-961.000000, -3479.000000)">
            <g id="Group-5-Copy-2" transform="translate(0.000000, 3386.000000)">
                <g id="Group-27" transform="translate(200.000000, 90.000000)">
                    <g id="Group-26" transform="translate(751.000000, 3.000000)">
                        <g id="Group-25" transform="translate(10.000000, 0.000000)">
                            <path d="M0,76 L5.36870149,56.4849824 C2.0565514,50.7736315 0.314764948,44.293915 0.316854674,37.6576518 C0.325540097,16.8932519 17.3009705,0 38.1584584,0 C48.2816126,0.00455077363 57.7828121,3.92653751 64.9264092,11.0447926 C72.0715735,18.1629827 76.0041109,27.6246262 76,37.6871018 C75.9913114,58.4520218 59.0148361,75.346769 38.1599604,75.346769 C38.1584584,75.346769 38.1610052,75.346769 38.1599604,75.346769 L38.143112,75.346769 C31.8101326,75.3447536 25.5873863,73.7621246 20.060584,70.7634898 L0,76 L0,76 Z" id="Path" fill="#1A992F" fill-rule="nonzero"></path>
                            <path d="M28.4239546,21.7190193 C27.6683753,20.0843777 26.8728445,20.0516548 26.1539882,20.0230549 C25.5660165,19.9985127 24.8928958,20 24.2208512,20 C23.5482686,20 22.4553218,20.2459636 21.5310588,21.2281753 C20.6062577,22.2103869 18,24.5848287 18,29.4140143 C18,34.2437235 21.6151316,38.9103416 22.1190305,39.565782 C22.6234675,40.2202408 29.0976134,50.4472058 39.3507992,54.3816154 C47.8720848,57.6513568 49.6061374,57.0009557 51.4557396,56.837341 C53.3053418,56.6737263 57.4238343,54.4634228 58.2645626,52.1712465 C59.1052909,49.8795937 59.1052909,47.9152358 58.8530724,47.5046284 C58.6008539,47.0955917 57.9282713,46.8501697 56.9193973,46.3593256 C55.9105234,45.8684815 50.9513026,43.4935162 50.0265015,43.1662868 C49.1017004,42.8390575 48.4291178,42.6754428 47.7565351,43.658178 C47.0839525,44.6398661 45.1518244,46.8501697 44.5633146,47.5046284 C43.9748048,48.1605924 43.386295,48.2423997 42.3774211,47.7515557 C41.3685471,47.2592064 38.1196367,46.2237872 34.2654692,42.8798957 C31.2666923,40.2784222 29.2420841,37.0654224 28.6535743,36.0827526 C28.0650645,35.1010645 28.5904861,34.5693168 29.0965372,34.079978 C29.5494544,33.6402471 30.1054112,32.9341516 30.6098481,32.3609766 C31.113209,31.7878017 31.2813546,31.3787649 31.617646,30.7243062 C31.9539373,30.0688003 31.7857916,29.4956908 31.5335731,29.0048467 C31.2813546,28.5140027 29.3209108,23.6598822 28.4239546,21.7190193 L28.4239546,21.7190193 Z" id="Path" fill="#FFFFFF"></path>
                        </g>
                    </g>
                </g>
            </g>
        </g>
    </g>
</svg>